#!OML:ASF I:\salsa\salsa 7_09\Patient 1\Session 1\dancerfemale.ASF
:FULLY-SPECIFIED
:DEGREES
1773
root -7.57519 16.01 3.51072 -1773.51 1173.93 -338.649
lowerback 4.79791 3.92925 3.29073
upperback -3.04629 5.37373 -3.16676
thorax -5.25244 2.49892 -5.62741
lowerneck -3.04794 -1.67206 -4.85069
upperneck 28.1294 -1.4732 4.09746
head 9.39669 -0.285773 2.21543
rclavicle 2.20154e-014 -1.90833e-014
rhumerus -27.1669 23.17 -88.4542
rradius 112.052
rwrist -45.211
rhand -3.51538 -321.277
rfingers 7.12502
rthumb 22.2193 9.98054
lclavicle 2.20154e-014 -1.90833e-014
lhumerus -18.7311 -12.3575 104.463
lradius 66.505
lwrist -7.08032
lhand -29.3537 22.139
lfingers 7.12502
lthumb -2.69335 -307.898
rfemur -0.424311 -6.18799 21.203
rtibia 26.8762
rfoot -21.545 -17.373
rtoes -29.0988
lfemur -28.2413 3.78321 -19.5811
ltibia 44.3669
lfoot -22.2157 2.37274
ltoes -24.8462
1774
root -7.45542 16.0173 3.43781 -1790.42 1175.53 -355.582
lowerback 4.61824 3.9084 2.67532
upperback -3.03104 5.29749 -3.31239
thorax -5.18256 2.48647 -5.41391
lowerneck -2.39744 -2.31136 -5.44094
upperneck 28.0708 -2.33793 4.28855
head 9.31202 -0.720178 2.31209
rclavicle -3.59552e-014 -3.97569e-014
rhumerus -27.2274 22.0162 -87.9288
rradius 112.413
rwrist -45.2272
rhand -3.68088 -321.009
rfingers 7.12502
rthumb 22.0604 10.2294
lclavicle -3.59552e-014 -3.97569e-014
lhumerus -18.8153 -12.9152 104.796
lradius 66.4182
lwrist -7.66663
lhand -29.4184 21.2965
lfingers 7.12502
lthumb -2.7558 -308.742
rfemur -1.27932 -6.467 20.2244
rtibia 29.5092
rfoot -20.5707 -18.743
rtoes -29.5588
lfemur -27.3629 2.20737 -20.8433
ltibia 43.1451
lfoot -21.7071 1.7666
ltoes -23.9251
1775
root -7.33234 16.0222 3.3559 -1798.59 1177.37 -363.754
lowerback 4.44785 3.85906 2.20199
upperback -2.94734 5.19634 -3.4396
thorax -5.0374 2.45904 -5.25543
lowerneck -1.81771 -2.93277 -6.07845
upperneck 27.9557 -3.21895 4.62098
head 9.23258 -1.15761 2.46614
rclavicle 4.3832e-014 -6.36111e-015
rhumerus -27.0202 20.836 -87.3218
rradius 112.604
rwrist -45.5975
rhand -4.35358 -321.305
rfingers 7.12502
rthumb 21.4144 9.8586
lclavicle 4.3832e-014 -6.36111e-015
lhumerus -18.8327 -13.6046 105.038
lradius 66.2795
lwrist -7.97955
lhand -29.3514 20.2907
lfingers 7.12502
lthumb -2.69109 -309.747
rfemur -2.66057 -7.28631 19.1883
rtibia 33.0595
rfoot -19.1539 -19.5277
rtoes -28.6826
lfemur -26.3538 0.494871 -22.0442
ltibia 41.883
lfoot -21.456 1.47032
ltoes -22.7364
1776
root -7.20706 16.0393 3.27015 -1801.62 1179.29 -366.777
lowerback 4.26258 3.77138 2.03539
upperback -2.82469 5.06713 -3.51656
thorax -4.82369 2.40849 -5.21035
lowerneck -1.32185 -3.53458 -6.37933
upperneck 27.8248 -4.05372 4.70874
head 9.15735 -1.56592 2.48135
rclavicle 1.11816e-014 -3.97569e-015
rhumerus -26.5638 19.6766 -86.6747
rradius 112.659
rwrist -46.1422
rhand -5.09315 -321.725
rfingers 7.12502
rthumb 20.7039 9.35947
lclavicle 1.11816e-014 -3.97569e-015
lhumerus -18.6636 -14.3159 105.201
lradius 66.0105
lwrist -8.38988
lhand -28.945 19.5115
lfingers 7.12502
lthumb -2.29859 -310.521
rfemur -4.64457 -8.3044 18.4382
rtibia 37.3887
rfoot -16.4872 -20.1887
rtoes -26.585
lfemur -25.3118 -1.13863 -22.9539
ltibia 40.6175
lfoot -21.1506 1.23953
ltoes -21.2021
1777
root -7.08341 16.0516 3.17925 -1802.11 1181.15 -367.307
lowerback 4.04998 3.68489 2.18936
upperback -2.70684 4.96089 -3.52623
thorax -4.57677 2.35926 -5.27439
lowerneck -0.989118 -4.13641 -6.34949
upperneck 27.7711 -4.82654 4.42613
head 9.12217 -1.94659 2.31663
rclavicle 4.15087e-014 -4.77083e-015
rhumerus -26.0478 18.5473 -85.9734
rradius 112.625
rwrist -46.7302
rhand -5.6915 -321.896
rfingers 7.12502
rthumb 20.1289 9.12685
lclavicle 4.15087e-014 -4.77083e-015
lhumerus -18.3834 -15.1595 105.415
lradius 65.6885
lwrist -8.894
lhand -28.6728 18.8947
lfingers 7.12502
lthumb -2.03573 -311.135
rfemur -7.28203 -8.97865 18.1366
rtibia 42.334
rfoot -12.6648 -21.3276
rtoes -21.1137
lfemur -24.3753 -2.65878 -23.5698
ltibia 39.51
lfoot -20.92 0.922273
ltoes -19.3007
1778
root -6.96119 16.0502 3.07934 -1802.98 1182.72 -368.245
lowerback 3.84631 3.64794 2.32047
upperback -2.56181 4.91859 -3.54422
thorax -4.30179 2.34389 -5.33845
lowerneck -0.818829 -4.67188 -6.4961
upperneck 27.6807 -5.53216 4.30504
head 9.10724 -2.30143 2.24134
rclavicle 1.24365e-014 2.3059e-014
rhumerus -25.4885 17.502 -85.2584
rradius 112.511
rwrist -47.2642
rhand -6.03758 -321.924
rfingers 7.12502
rthumb 19.7962 9.06381
lclavicle 1.24365e-014 2.3059e-014
lhumerus -18.0836 -16.0993 105.715
lradius 65.4801
lwrist -9.3126
lhand -28.9597 18.3664
lfingers 7.12502
lthumb -2.31283 -311.666
rfemur -10.4473 -10.0721 17.5686
rtibia 47.7321
rfoot -8.03362 -22.2261
rtoes -9.91686
lfemur -23.4548 -4.07659 -24.3469
ltibia 38.6454
lfoot -21.0277 0.794048
ltoes -17.8994
1779
root -6.85261 16.0223 2.98509 -1804.57 1184.02 -369.868
lowerback 3.9676 3.63783 2.16423
upperback -2.46989 4.8976 -3.55794
thorax -4.28814 2.3398 -5.26881
lowerneck -0.55799 -5.10006 -6.96787
upperneck 27.3141 -6.18174 4.61393
head 8.99876 -2.6325 2.37345
rclavicle -1.18935e-013 1.98785e-014
rhumerus -24.9588 16.5394 -84.6158
rradius 112.424
rwrist -47.6741
rhand -6.15251 -322.06
rfingers 7.12502
rthumb 19.6857 8.9165
lclavicle -1.18935e-013 1.98785e-014
lhumerus -17.8986 -17.0915 106.061
lradius 65.413
lwrist -9.62751
lhand -29.6081 17.9748
lfingers 7.12502
lthumb -2.93903 -312.066
rfemur -14.373 -11.3179 16.8019
rtibia 53.3559
rfoot -3.07884 -23.5892
rtoes -4.34399
lfemur -22.6324 -5.56404 -25.3132
ltibia 38.0378
lfoot -21.3068 1.12498
ltoes -17.466
1780
root -6.75201 15.9648 2.90739 -1807.89 1185.18 -373.124
lowerback 4.4681 3.64526 1.30786
upperback -2.37022 4.85654 -3.6615
thorax -4.53225 2.34049 -4.93135
lowerneck -0.152811 -5.45901 -7.43038
upperneck 26.6204 -6.78602 5.04198
head 8.75452 -2.94344 2.5483
rclavicle 5.29264e-014 -2.10712e-014
rhumerus -24.4482 15.5152 -84.1359
rradius 112.247
rwrist -47.731
rhand -6.10145 -322.309
rfingers 7.12502
rthumb 19.7348 8.67252
lclavicle 5.29264e-014 -2.10712e-014
lhumerus -17.7981 -18.1292 106.38
lradius 65.4244
lwrist -9.87618
lhand -29.6622 17.5016
lfingers 7.12502
lthumb -2.99124 -312.54
rfemur -18.1642 -12.3931 15.6246
rtibia 58.7261
rfoot -1.79154 -23.4065
rtoes 2.94872
lfemur -21.6339 -6.95151 -26.7493
ltibia 37.3491
lfoot -21.5036 1.63893
ltoes -17.1792
1781
root -6.63774 15.8896 2.83457 -1814.12 1186.29 -379.044
lowerback 5.15614 3.76074 -0.497336
upperback -2.07816 4.88656 -3.96764
thorax -4.73739 2.41075 -4.28822
lowerneck 0.185485 -5.82555 -7.63949
upperneck 25.8355 -7.36203 5.19929
head 8.47641 -3.24699 2.58816
rclavicle 1.10624e-013 -5.56597e-015
rhumerus -23.9554 14.3114 -83.8738
rradius 111.943
rwrist -47.4809
rhand -5.93339 -322.63
rfingers 7.12502
rthumb 19.8964 8.3687
lclavicle 1.10624e-013 -5.56597e-015
lhumerus -17.6386 -19.1255 106.769
lradius 65.3801
lwrist -10.2799
lhand -29.3159 16.866
lfingers 7.12502
lthumb -2.65684 -313.171
rfemur -21.4027 -13.1947 13.4523
rtibia 63.5028
rfoot -0.512822 -22.5705
rtoes 1.20923
lfemur -20.0941 -7.64127 -29.1408
ltibia 36.5796
lfoot -21.6989 1.82473
ltoes -15.6727
1782
root -6.50445 15.8648 2.76081 -1820.69 1187.42 -385.049
lowerback 6.03963 3.95918 -2.52158
upperback -1.64732 4.98894 -4.30959
thorax -4.92471 2.52566 -3.58354
lowerneck 0.513424 -6.16628 -7.72278
upperneck 24.9157 -7.89844 5.28189
head 8.14768 -3.53334 2.58605
rclavicle 2.7805e-014 2.28602e-014
rhumerus -23.6441 13.0431 -83.892
rradius 111.672
rwrist -47.2965
rhand -5.84521 -323.258
rfingers 7.12502
rthumb 19.9812 7.74978
lclavicle 2.7805e-014 2.28602e-014
lhumerus -17.4337 -20.1305 107.229
lradius 65.2307
lwrist -10.8243
lhand -29.0436 16.3788
lfingers 7.12502
lthumb -2.39381 -313.655
rfemur -23.9107 -13.8476 10.9717
rtibia 67.0459
rfoot -1.97142 -19.3107
rtoes -2.10216
lfemur -18.0121 -7.40147 -31.7403
ltibia 35.619
lfoot -21.7668 1.36828
ltoes -13.8775
